<svg width="24" height="24" viewBox="0 0 24 24" fill="none" xmlns="http://www.w3.org/2000/svg">
<path d="M12 0C5.38281 0 0 5.38281 0 12C0 18.6172 5.38281 24 12 24C18.6172 24 24 18.6172 24 12C24 5.38281 18.6172 0 12 0ZM11 2.21875V6H8.03125C8.21094 5.52734 8.40625 5.08594 8.625 4.6875C9.32812 3.39844 10.1602 2.58203 11 2.21875ZM13 2.21875C13.8398 2.58203 14.6719 3.39844 15.375 4.6875C15.5938 5.08594 15.7891 5.52734 15.9688 6H13V2.21875ZM7.1875 3.25C7.08203 3.41797 6.97266 3.57422 6.875 3.75C6.5 4.4375 6.17578 5.1875 5.90625 6H4.03125C4.88281 4.875 5.94141 3.93359 7.1875 3.25ZM16.8125 3.25C18.0586 3.93359 19.1172 4.875 19.9688 6H18.0938C17.8242 5.1875 17.5 4.4375 17.125 3.75C17.0273 3.57422 16.918 3.41797 16.8125 3.25ZM2.8125 8H5.40625C5.21484 8.95703 5.07812 9.95312 5.03125 11H2.0625C2.16797 9.94531 2.40625 8.92969 2.8125 8ZM7.4375 8H11V11H7.03125C7.08594 9.94531 7.22656 8.93359 7.4375 8ZM13 8H16.5625C16.7734 8.93359 16.9141 9.94531 16.9688 11H13V8ZM18.5938 8H21.1875C21.5938 8.92969 21.832 9.94531 21.9375 11H18.9688C18.9219 9.95312 18.7852 8.95703 18.5938 8ZM2.0625 13H5.03125C5.07812 14.0469 5.21484 15.043 5.40625 16H2.8125C2.40625 15.0703 2.16797 14.0547 2.0625 13ZM7.03125 13H11V16H7.4375C7.22656 15.0664 7.08594 14.0547 7.03125 13ZM13 13H16.9688C16.9141 14.0547 16.7734 15.0664 16.5625 16H13V13ZM18.9688 13H21.9375C21.832 14.0547 21.5938 15.0703 21.1875 16H18.5938C18.7852 15.043 18.9219 14.0469 18.9688 13ZM4.03125 18H5.90625C6.17578 18.8125 6.5 19.5625 6.875 20.25C6.97266 20.4258 7.08203 20.582 7.1875 20.75C5.94141 20.0664 4.88281 19.125 4.03125 18ZM8.03125 18H11V21.7812C10.1602 21.418 9.32812 20.6016 8.625 19.3125C8.40625 18.9141 8.21094 18.4727 8.03125 18ZM13 18H15.9688C15.7891 18.4727 15.5938 18.9141 15.375 19.3125C14.6719 20.6016 13.8398 21.418 13 21.7812V18ZM18.0938 18H19.9688C19.1172 19.125 18.0586 20.0664 16.8125 20.75C16.918 20.582 17.0273 20.4258 17.125 20.25C17.5 19.5625 17.8242 18.8125 18.0938 18Z" fill="white"/>
</svg>
